Coordinates
version=1
nRows=22
nColumns=24
inDegrees=yes

Units are S.I. units (second, meters, Newtons, ...)
Angles are in degrees.

endheader
time	pelvis_tilt	pelvis_list	pelvis_rotation	pelvis_tx	pelvis_ty	pelvis_tz	hip_flexion_r	hip_adduction_r	hip_rotation_r	knee_angle_r	ankle_angle_r	subtalar_angle_r	mtp_angle_r	hip_flexion_l	hip_adduction_l	hip_rotation_l	knee_angle_l	ankle_angle_l	subtalar_angle_l	mtp_angle_l	lumbar_extension	lumbar_bending	lumbar_rotation
      3.58500000	    -12.04026423	     -3.89060995	      5.24592689	     -1.68219623	     -0.05465922	     -0.34263970	     42.34800173	      0.78079018	     -7.32939008	    -16.04857508	     -1.04700777	      8.13179487	     14.88847147	     -3.49616214	     -1.88910913	      5.66694827	    -21.13363177	     23.84355111	     23.57707200	    -13.37503016	     11.51606022	     -1.91327310	    -16.40128362
      3.59000000	    -12.08846012	     -4.15046493	      5.49658445	     -1.67450912	     -0.05585795	     -0.34241888	     42.53026676	      0.87783906	     -7.73355480	    -17.05919190	     -1.51921029	      7.97980523	     14.79143819	     -3.45041556	     -2.40269406	      5.33799579	    -22.03883926	     23.65332338	     24.82854032	    -13.00998006	     11.68873377	     -1.65717658	    -16.61954356
      3.59500000	    -12.08838163	     -4.49567166	      5.61060376	     -1.66670005	     -0.05696465	     -0.34201487	     42.64209710	      1.16533343	     -7.98976032	    -18.01387553	     -2.24660498	      7.58323344	     14.80818911	     -3.43715594	     -3.05601545	      4.67992828	    -22.98108129	     23.36809928	     26.29855456	    -12.35539715	     11.82967940	     -1.26226383	    -16.66427935
      3.60000000	    -11.97767486	     -4.79265057	      5.64081756	     -1.65889516	     -0.05774083	     -0.34149241	     42.58782826	      1.52594823	     -7.89792679	    -18.84231679	     -3.37326042	      6.68066901	     15.17196511	     -3.59022150	     -3.67687899	      3.96628977	    -23.73170425	     22.39351578	     27.63093000	    -10.14066790	     11.83044600	     -0.87631402	    -16.61040132
      3.60500000	    -12.09011689	     -5.20544600	      5.81945056	     -1.65115356	     -0.05873350	     -0.34123085	     42.83893981	      1.78649806	     -8.29172963	    -19.83797075	     -4.22673100	      6.30429198	     15.12146377	     -3.34625880	     -4.40470584	      3.47248413	    -24.78929712	     21.87106777	     29.06146493	     -9.33985206	     12.08477729	     -0.41615890	    -16.73878007
      3.61000000	    -12.02337608	     -5.52881759	      5.79409869	     -1.64331043	     -0.05930225	     -0.34061343	     42.86313818	      2.20196656	     -8.22032112	    -20.73650244	     -5.38128887	      5.34749938	     15.21697884	     -3.42640007	     -5.06708414	      2.80906621	    -25.45170632	     20.20599876	     30.34824621	     -5.56032213	     12.12953341	      0.00399756	    -16.65000893
      3.61500000	    -12.07260656	     -5.88828120	      5.72747835	     -1.63558938	     -0.06002088	     -0.33990088	     43.05481075	      2.67189861	     -8.06551923	    -21.71810885	     -6.40726417	      4.39739383	     14.86876943	     -3.24944081	     -5.79521172	      1.98755481	    -26.47978719	     19.16927998	     31.92880115	     -3.94354130	     12.28202893	      0.45780523	    -16.52092649
      3.62000000	    -12.10608169	     -6.27013056	      5.76061471	     -1.62779477	     -0.06049355	     -0.33936644	     43.21070999	      3.07086920	     -8.11657469	    -22.71134279	     -7.23161418	      3.66983038	     14.37422935	     -3.06421228	     -6.54330475	      1.35599755	    -27.37286025	     17.43348902	     33.33616445	     -0.74467002	     12.43150309	      0.91490201	    -16.55581540
      3.62500000	    -12.14496697	     -6.63620124	      5.70048643	     -1.62005703	     -0.06094879	     -0.33866415	     43.38540809	      3.54820233	     -7.98551807	    -23.72476582	     -7.98595438	      2.81836209	     13.75056178	     -2.82460947	     -7.29778732	      0.60576827	    -28.39697895	     15.75773649	     34.84909363	      1.86387776	     12.56576414	      1.37461493	    -16.47840196
      3.63000000	    -12.17849710	     -7.00000331	      5.62983658	     -1.61230457	     -0.06131398	     -0.33794088	     43.53415129	      4.04898354	     -7.79404710	    -24.72300685	     -8.56271309	      1.97066720	     13.02663625	     -2.55311403	     -8.05329879	     -0.09016199	    -29.45504572	     13.88648321	     36.30686788	      4.51279143	     12.69078008	      1.83385557	    -16.39495898
      3.63500000	    -12.20228105	     -7.35027379	      5.53816045	     -1.60454248	     -0.06159146	     -0.33712551	     43.64174497	      4.58885017	     -7.49009813	    -25.68051755	     -9.01872497	      1.02159411	     12.29229076	     -2.25726572	     -8.79927648	     -0.73072289	    -30.56375841	     11.89499424	     37.69861353	      6.87874475	     12.79967014	      2.26831892	    -16.34782346
      3.64000000	    -12.21054238	     -7.68352992	      5.45636594	     -1.59679650	     -0.06183228	     -0.33640603	     43.73670184	      5.07105900	     -7.35117769	    -26.68323622	     -9.12356204	      0.45317099	     11.62149183	     -1.93371667	     -9.51690268	     -1.28726044	    -31.68497158	      9.62835907	     38.99226755	      9.61828237	     12.88125348	      2.70108456	    -16.25451640
      3.64500000	    -12.19959340	     -8.00791785	      5.38098096	     -1.58912789	     -0.06202059	     -0.33564829	     43.76846053	      5.57376636	     -7.11493660	    -27.61431279	     -9.09800015	     -0.15707643	     11.08177669	     -1.56681557	    -10.21571044	     -1.72370484	    -32.90097770	      7.33580458	     40.14822375	     11.88542998	     12.92788159	      3.11804763	    -16.19401906
      3.65000000	    -12.20434820	     -8.33105400	      5.29980239	     -1.58141342	     -0.06216918	     -0.33486358	     43.78411222	      6.07275082	     -6.98945403	    -28.49780770	     -8.96395618	     -0.77185009	     10.68260047	     -1.14914679	    -10.89933175	     -2.05318994	    -34.16022905	      4.97612031	     41.19213676	     13.65543302	     13.00122733	      3.51962122	    -16.13879469
      3.65500000	    -12.17527697	     -8.63477556	      5.21509561	     -1.57382696	     -0.06229282	     -0.33413780	     43.73726740	      6.54295662	     -6.87472598	    -29.35309735	     -8.57386168	     -1.05177931	     10.45411852	     -0.70667328	    -11.53883892	     -2.30154739	    -35.48032371	      2.52075421	     42.01981566	     15.35450335	     13.00905455	      3.91453195	    -16.08025298
      3.66000000	    -12.15236281	     -8.93791675	      5.11205096	     -1.56623757	     -0.06240084	     -0.33346669	     43.64947833	      7.00945031	     -6.81050616	    -30.13636919	     -8.03976768	     -1.21783865	     10.42350420	     -0.21946155	    -12.14380868	     -2.46125894	    -36.86552036	      0.11723609	     42.60335266	     16.43238942	     13.03094468	      4.32436762	    -16.02531575
      3.66500000	    -12.11681879	     -9.19752722	      5.01103915	     -1.55871897	     -0.06244074	     -0.33279599	     43.50831624	      7.42989198	     -6.77728174	    -30.86615083	     -7.38732343	     -1.27913699	     10.51736583	      0.28918096	    -12.66863009	     -2.49707034	    -38.26488282	     -2.29061249	     42.98909991	     17.15481839	     13.02764892	      4.67751877	    -15.95718304
      3.67000000	    -12.08190718	     -9.43989871	      4.89490120	     -1.55132311	     -0.06246912	     -0.33213549	     43.33304811	      7.83152021	     -6.77224459	    -31.53238658	     -6.66274024	     -1.23923483	     10.76688296	      0.85473612	    -13.14830614	     -2.47194385	    -39.74591815	     -4.54203644	     43.18927284	     17.28066101	     13.00800737	      5.01946211	    -15.86551825
      3.67500000	    -12.02843437	     -9.71718980	      4.72086893	     -1.54401045	     -0.06244868	     -0.33142821	     43.08829344	      8.30761559	     -6.74254962	    -32.09121754	     -5.95385719	     -1.18924237	     11.08113003	      1.44230658	    -13.64338224	     -2.47710724	    -41.30600792	     -6.61034733	     43.02535577	     16.88605169	     12.95498568	      5.41355938	    -15.70979195
      3.68000000	    -12.00552448	    -10.00960958	      4.56350762	     -1.53677978	     -0.06240078	     -0.33076959	     42.83398473	      8.76297611	     -6.79370508	    -32.56968537	     -5.21398611	     -1.04763336	     11.43142222	      2.12333757	    -14.13411801	     -2.42955527	    -42.88692448	     -8.62176538	     42.67611667	     16.45103214	     12.93713303	      5.81447333	    -15.57667997
      3.68500000	    -12.00377781	    -10.30040016	      4.40586745	     -1.52967302	     -0.06230914	     -0.33018114	     42.56113433	      9.19440054	     -6.89520971	    -32.96500650	     -4.45757195	     -0.82247858	     11.82171255	      2.88507590	    -14.59415750	     -2.35497362	    -44.49708382	    -10.51778280	     42.05274459	     15.93357511	     12.93205870	      6.22526739	    -15.43593821
      3.69000000	    -12.08036586	    -10.54321968	      4.29569295	     -1.52272442	     -0.06221459	     -0.32972067	     42.35531761	      9.48870354	     -7.14436887	    -33.33180588	     -3.66464273	     -0.34565268	     12.38676243	      3.81423708	    -14.95105015	     -2.15866270	    -46.15039885	    -12.22532366	     41.15745728	     15.17249387	     13.00113604	      6.56417326	    -15.32430426
